<?xml version="1.0" encoding="UTF-8"?>
<svg xmlns="http://www.w3.org/2000/svg" xmlns:xlink="http://www.w3.org/1999/xlink" width="22pt" height="22pt" viewBox="0 0 22 22" version="1.1">
<g id="surface1">
<path style=" stroke:none;fill-rule:nonzero;fill:rgb(0%,0%,0%);fill-opacity:1;" d="M 13.75 0 L 8.25 0 C 6.792969 0 5.609375 1.621094 5.609375 3.078125 L 5.609375 19.359375 C 5.609375 20.816406 6.792969 22 8.25 22 L 13.75 22 C 15.207031 22 16.390625 20.816406 16.390625 19.359375 L 16.390625 3.078125 C 16.390625 1.621094 15.207031 0 13.75 0 Z M 15.925781 6.636719 L 15.925781 12.09375 L 14.652344 12.257812 L 14.652344 10.007812 Z M 15.257812 5.039062 C 14.78125 6.863281 14.21875 9.019531 14.21875 9.019531 L 7.78125 9.019531 L 6.738281 5.039062 C 6.742188 5.039062 10.894531 3.628906 15.257812 5.039062 Z M 7.363281 10.15625 L 7.363281 12.257812 L 6.085938 12.09375 L 6.085938 6.785156 Z M 6.085938 17.746094 L 6.085938 12.902344 L 7.363281 13.0625 L 7.363281 16.894531 Z M 6.8125 19.125 L 7.851562 17.5625 L 14.292969 17.5625 L 15.332031 19.125 Z M 14.652344 16.75 L 14.652344 13.066406 L 15.925781 12.898438 L 15.925781 17.601562 Z M 14.652344 16.75 "/>
</g>
</svg>
